<svg xmlns="http://www.w3.org/2000/svg" xmlns:xlink="http://www.w3.org/1999/xlink" width="500" zoomAndPan="magnify" viewBox="0 0 375 374.999991" height="500" preserveAspectRatio="xMidYMid meet" version="1.0"><defs><g/><clipPath id="ed41450d6e"><path d="M 53 169 L 90.398438 169 L 90.398438 206 L 53 206 Z M 53 169 " clip-rule="nonzero"/></clipPath><clipPath id="ed130b8bd8"><path d="M 52.898438 168.75 L 90.398438 168.75 L 90.398438 206 L 52.898438 206 Z M 52.898438 168.75 " clip-rule="nonzero"/></clipPath></defs><g clip-path="url(#ed41450d6e)"><path fill="#ffffff" d="M 53.34375 187.050781 C 53.832031 187.804688 59 190.015625 60.511719 189.558594 C 61.082031 188.984375 61.03125 186.367188 61.367188 185.699219 C 62.195312 188.300781 60.421875 202.488281 60.367188 204.707031 C 62.574219 206.25 79.023438 206.085938 82.890625 205.167969 C 83.484375 204.324219 81.460938 191.839844 81.664062 186.128906 C 82.058594 186.699219 82.28125 188.203125 82.378906 188.84375 C 83.976562 189.300781 89.773438 187.984375 90.203125 187.269531 C 90.21875 185.839844 86.238281 174.835938 85.238281 174.265625 C 84.113281 173.296875 77.308594 170.949219 76.339844 169.882812 C 76.117188 169.757812 75.941406 169.441406 75.816406 169.261719 C 74.699219 169.777344 69.191406 169.976562 68.167969 169.175781 C 67.917969 169.472656 67.945312 169.660156 67.574219 169.832031 C 66.859375 169.832031 60.550781 172.828125 58.449219 174.519531 C 56.933594 176.316406 53.078125 186.140625 53.34375 187.054688 Z M 53.34375 187.050781 " fill-opacity="1" fill-rule="evenodd"/></g><g clip-path="url(#ed130b8bd8)"><path fill="#ffffff" d="M 68.089844 168.746094 C 66.996094 170.289062 64.054688 170.816406 62.234375 172.058594 C 60.441406 173.15625 58.089844 173.816406 57.238281 175.933594 C 55.496094 179.46875 53.882812 182.839844 52.945312 186.679688 C 53.554688 188.507812 56.230469 188.804688 57.859375 189.546875 C 58.410156 189.6875 59.542969 190.011719 60.265625 189.839844 C 60.847656 189.324219 61.015625 188.316406 61.308594 186.574219 C 62.109375 189.964844 60.25 199.484375 60.011719 204.8125 C 61.503906 206.054688 64.449219 205.648438 66.625 205.898438 C 72.085938 206.074219 78.378906 205.800781 83.433594 205.605469 C 83.207031 203.78125 82.941406 201.433594 82.980469 199.511719 C 82.628906 196.015625 82.023438 192.65625 81.847656 189.144531 C 81.734375 188.910156 81.765625 187.570312 81.691406 186.902344 C 82.175781 187.914062 82.476562 189.113281 82.484375 189.335938 C 83.546875 189.148438 87.0625 188.695312 88.027344 188.496094 C 89.050781 188.4375 90.003906 188.3125 90.546875 187.894531 C 90.527344 187.410156 90.238281 186.492188 90.039062 185 C 88.824219 181.324219 87.636719 177.585938 85.726562 174.207031 C 83.941406 172.679688 81.339844 172.359375 79.261719 171.292969 C 77.433594 170.777344 76.808594 169.820312 75.550781 169.082031 C 73.242188 169.722656 70.796875 169.980469 68.089844 168.746094 Z M 68.273438 169.503906 C 70.636719 170.199219 73.230469 170.105469 75.625 169.625 C 77.292969 171.394531 79.953125 171.722656 82.078125 172.800781 C 84.25 173.429688 86.171875 175.011719 86.679688 177.324219 C 87.957031 180.503906 89.253906 184.066406 89.992188 187.421875 C 87.78125 188.394531 85.082031 188.554688 82.664062 188.453125 C 82.894531 187.234375 81.234375 184.246094 81.253906 186.914062 C 81.265625 192.894531 82.753906 199.15625 82.859375 205.128906 C 76.929688 205.5625 70.46875 205.757812 64.5 205.378906 C 62.441406 205.269531 59.609375 204.976562 60.847656 202.148438 C 61.257812 196.871094 62.144531 191.515625 61.835938 186.214844 C 60.824219 183.644531 60.691406 188.25 60.261719 189.152344 C 57.914062 189.101562 55.335938 188.296875 53.390625 187.042969 C 54.347656 183.160156 56.117188 179.167969 57.925781 175.609375 C 59.101562 173.582031 61.617188 172.980469 63.527344 171.808594 C 64.949219 170.871094 67.019531 170.566406 68.273438 169.503906 Z M 68.273438 169.503906 " fill-opacity="1" fill-rule="evenodd"/></g><g fill="#ffffff" fill-opacity="1"><g transform="translate(90.012075, 201.03332)"><g><path d="M 20.796875 -28.140625 L 20.796875 -22.640625 L 9.34375 -22.640625 L 9.34375 -16.71875 L 17.921875 -16.71875 L 17.921875 -11.375 L 9.34375 -11.375 L 9.34375 0 L 2.484375 0 L 2.484375 -28.140625 Z M 20.796875 -28.140625 "/></g></g></g><g fill="#ffffff" fill-opacity="1"><g transform="translate(110.529445, 201.03332)"><g><path d="M 1.125 -11.21875 C 1.125 -13.519531 1.554688 -15.535156 2.421875 -17.265625 C 3.296875 -19.003906 4.476562 -20.34375 5.96875 -21.28125 C 7.46875 -22.21875 9.140625 -22.6875 10.984375 -22.6875 C 12.554688 -22.6875 13.9375 -22.363281 15.125 -21.71875 C 16.3125 -21.082031 17.226562 -20.242188 17.875 -19.203125 L 17.875 -22.359375 L 24.734375 -22.359375 L 24.734375 0 L 17.875 0 L 17.875 -3.171875 C 17.207031 -2.128906 16.28125 -1.285156 15.09375 -0.640625 C 13.90625 0.00390625 12.519531 0.328125 10.9375 0.328125 C 9.125 0.328125 7.46875 -0.144531 5.96875 -1.09375 C 4.476562 -2.050781 3.296875 -3.40625 2.421875 -5.15625 C 1.554688 -6.90625 1.125 -8.925781 1.125 -11.21875 Z M 17.875 -11.1875 C 17.875 -12.894531 17.398438 -14.242188 16.453125 -15.234375 C 15.503906 -16.222656 14.347656 -16.71875 12.984375 -16.71875 C 11.617188 -16.71875 10.460938 -16.226562 9.515625 -15.25 C 8.566406 -14.269531 8.09375 -12.925781 8.09375 -11.21875 C 8.09375 -9.507812 8.566406 -8.15625 9.515625 -7.15625 C 10.460938 -6.15625 11.617188 -5.65625 12.984375 -5.65625 C 14.347656 -5.65625 15.503906 -6.144531 16.453125 -7.125 C 17.398438 -8.113281 17.875 -9.46875 17.875 -11.1875 Z M 17.875 -11.1875 "/></g></g></g><g fill="#ffffff" fill-opacity="1"><g transform="translate(136.336526, 201.03332)"><g><path d="M 11.578125 0.328125 C 9.628906 0.328125 7.894531 -0.00390625 6.375 -0.671875 C 4.851562 -1.347656 3.648438 -2.265625 2.765625 -3.421875 C 1.878906 -4.585938 1.382812 -5.890625 1.28125 -7.328125 L 8.0625 -7.328125 C 8.132812 -6.554688 8.488281 -5.929688 9.125 -5.453125 C 9.769531 -4.972656 10.5625 -4.734375 11.5 -4.734375 C 12.351562 -4.734375 13.015625 -4.898438 13.484375 -5.234375 C 13.953125 -5.566406 14.1875 -6 14.1875 -6.53125 C 14.1875 -7.175781 13.851562 -7.648438 13.1875 -7.953125 C 12.519531 -8.265625 11.4375 -8.609375 9.9375 -8.984375 C 8.332031 -9.347656 6.992188 -9.738281 5.921875 -10.15625 C 4.859375 -10.570312 3.9375 -11.226562 3.15625 -12.125 C 2.382812 -13.019531 2 -14.226562 2 -15.75 C 2 -17.03125 2.351562 -18.195312 3.0625 -19.25 C 3.769531 -20.3125 4.8125 -21.148438 6.1875 -21.765625 C 7.5625 -22.378906 9.203125 -22.6875 11.109375 -22.6875 C 13.910156 -22.6875 16.117188 -21.988281 17.734375 -20.59375 C 19.347656 -19.207031 20.273438 -17.363281 20.515625 -15.0625 L 14.1875 -15.0625 C 14.082031 -15.84375 13.738281 -16.457031 13.15625 -16.90625 C 12.582031 -17.363281 11.832031 -17.59375 10.90625 -17.59375 C 10.101562 -17.59375 9.488281 -17.4375 9.0625 -17.125 C 8.632812 -16.820312 8.421875 -16.40625 8.421875 -15.875 C 8.421875 -15.226562 8.757812 -14.742188 9.4375 -14.421875 C 10.113281 -14.109375 11.175781 -13.789062 12.625 -13.46875 C 14.28125 -13.039062 15.628906 -12.617188 16.671875 -12.203125 C 17.710938 -11.785156 18.625 -11.113281 19.40625 -10.1875 C 20.195312 -9.269531 20.609375 -8.039062 20.640625 -6.5 C 20.640625 -5.1875 20.269531 -4.015625 19.53125 -2.984375 C 18.800781 -1.953125 17.75 -1.140625 16.375 -0.546875 C 15 0.0351562 13.398438 0.328125 11.578125 0.328125 Z M 11.578125 0.328125 "/></g></g></g><g fill="#ffffff" fill-opacity="1"><g transform="translate(157.294707, 201.03332)"><g><path d="M 16.234375 -22.609375 C 18.796875 -22.609375 20.851562 -21.757812 22.40625 -20.0625 C 23.957031 -18.363281 24.734375 -16.03125 24.734375 -13.0625 L 24.734375 0 L 17.921875 0 L 17.921875 -12.140625 C 17.921875 -13.640625 17.53125 -14.800781 16.75 -15.625 C 15.976562 -16.457031 14.9375 -16.875 13.625 -16.875 C 12.3125 -16.875 11.269531 -16.457031 10.5 -15.625 C 9.726562 -14.800781 9.34375 -13.640625 9.34375 -12.140625 L 9.34375 0 L 2.484375 0 L 2.484375 -29.65625 L 9.34375 -29.65625 L 9.34375 -19.359375 C 10.03125 -20.347656 10.972656 -21.132812 12.171875 -21.71875 C 13.378906 -22.3125 14.734375 -22.609375 16.234375 -22.609375 Z M 16.234375 -22.609375 "/></g></g></g><g fill="#ffffff" fill-opacity="1"><g transform="translate(182.901421, 201.03332)"><g><path d="M 5.9375 -24.6875 C 4.726562 -24.6875 3.742188 -25.039062 2.984375 -25.75 C 2.222656 -26.457031 1.84375 -27.332031 1.84375 -28.375 C 1.84375 -29.445312 2.222656 -30.335938 2.984375 -31.046875 C 3.742188 -31.753906 4.726562 -32.109375 5.9375 -32.109375 C 7.101562 -32.109375 8.066406 -31.753906 8.828125 -31.046875 C 9.597656 -30.335938 9.984375 -29.445312 9.984375 -28.375 C 9.984375 -27.332031 9.597656 -26.457031 8.828125 -25.75 C 8.066406 -25.039062 7.101562 -24.6875 5.9375 -24.6875 Z M 9.34375 -22.359375 L 9.34375 0 L 2.484375 0 L 2.484375 -22.359375 Z M 9.34375 -22.359375 "/></g></g></g><g fill="#ffffff" fill-opacity="1"><g transform="translate(193.320253, 201.03332)"><g><path d="M 12.671875 0.328125 C 10.472656 0.328125 8.5 -0.140625 6.75 -1.078125 C 5 -2.015625 3.625 -3.347656 2.625 -5.078125 C 1.625 -6.816406 1.125 -8.851562 1.125 -11.1875 C 1.125 -13.476562 1.628906 -15.5 2.640625 -17.25 C 3.660156 -19 5.050781 -20.34375 6.8125 -21.28125 C 8.570312 -22.21875 10.550781 -22.6875 12.75 -22.6875 C 14.9375 -22.6875 16.910156 -22.21875 18.671875 -21.28125 C 20.441406 -20.34375 21.832031 -19 22.84375 -17.25 C 23.863281 -15.5 24.375 -13.476562 24.375 -11.1875 C 24.375 -8.882812 23.859375 -6.859375 22.828125 -5.109375 C 21.796875 -3.359375 20.390625 -2.015625 18.609375 -1.078125 C 16.835938 -0.140625 14.859375 0.328125 12.671875 0.328125 Z M 12.671875 -5.609375 C 13.972656 -5.609375 15.082031 -6.085938 16 -7.046875 C 16.925781 -8.015625 17.390625 -9.394531 17.390625 -11.1875 C 17.390625 -12.96875 16.941406 -14.335938 16.046875 -15.296875 C 15.148438 -16.265625 14.050781 -16.75 12.75 -16.75 C 11.40625 -16.75 10.289062 -16.273438 9.40625 -15.328125 C 8.53125 -14.378906 8.09375 -13 8.09375 -11.1875 C 8.09375 -9.394531 8.523438 -8.015625 9.390625 -7.046875 C 10.265625 -6.085938 11.359375 -5.609375 12.671875 -5.609375 Z M 12.671875 -5.609375 "/></g></g></g><g fill="#ffffff" fill-opacity="1"><g transform="translate(217.444252, 201.03332)"><g><path d="M 16.109375 -22.609375 C 18.734375 -22.609375 20.828125 -21.757812 22.390625 -20.0625 C 23.953125 -18.363281 24.734375 -16.03125 24.734375 -13.0625 L 24.734375 0 L 17.921875 0 L 17.921875 -12.140625 C 17.921875 -13.640625 17.53125 -14.800781 16.75 -15.625 C 15.976562 -16.457031 14.9375 -16.875 13.625 -16.875 C 12.3125 -16.875 11.269531 -16.457031 10.5 -15.625 C 9.726562 -14.800781 9.34375 -13.640625 9.34375 -12.140625 L 9.34375 0 L 2.484375 0 L 2.484375 -22.359375 L 9.34375 -22.359375 L 9.34375 -19.390625 C 10.03125 -20.378906 10.960938 -21.160156 12.140625 -21.734375 C 13.316406 -22.316406 14.640625 -22.609375 16.109375 -22.609375 Z M 16.109375 -22.609375 "/></g></g></g><g fill="#ffffff" fill-opacity="1"><g transform="translate(243.056113, 201.03332)"><g><path d="M 4.96875 -25.53125 C 4.269531 -25.53125 3.679688 -25.769531 3.203125 -26.25 C 2.722656 -26.726562 2.484375 -27.316406 2.484375 -28.015625 C 2.484375 -28.710938 2.722656 -29.300781 3.203125 -29.78125 C 3.679688 -30.257812 4.269531 -30.5 4.96875 -30.5 C 5.632812 -30.5 6.203125 -30.257812 6.671875 -29.78125 C 7.140625 -29.300781 7.375 -28.710938 7.375 -28.015625 C 7.375 -27.316406 7.140625 -26.726562 6.671875 -26.25 C 6.203125 -25.769531 5.632812 -25.53125 4.96875 -25.53125 Z M 6.734375 -21.96875 L 6.734375 0 L 3.09375 0 L 3.09375 -21.96875 Z M 6.734375 -21.96875 "/></g></g></g><g fill="#ffffff" fill-opacity="1"><g transform="translate(251.511347, 201.03332)"><g><path d="M 1.71875 -11.0625 C 1.71875 -13.300781 2.171875 -15.269531 3.078125 -16.96875 C 3.992188 -18.664062 5.242188 -19.984375 6.828125 -20.921875 C 8.421875 -21.859375 10.207031 -22.328125 12.1875 -22.328125 C 14.082031 -22.328125 15.742188 -21.90625 17.171875 -21.0625 C 18.597656 -20.21875 19.644531 -19.179688 20.3125 -17.953125 L 20.3125 -21.96875 L 24 -21.96875 L 24 10.421875 L 20.3125 10.421875 L 20.3125 -4.046875 C 19.625 -2.816406 18.554688 -1.773438 17.109375 -0.921875 C 15.671875 -0.0664062 13.988281 0.359375 12.0625 0.359375 C 10.132812 0.359375 8.382812 -0.117188 6.8125 -1.078125 C 5.238281 -2.046875 3.992188 -3.394531 3.078125 -5.125 C 2.171875 -6.863281 1.71875 -8.84375 1.71875 -11.0625 Z M 20.3125 -11.015625 C 20.3125 -12.671875 19.976562 -14.113281 19.3125 -15.34375 C 18.644531 -16.570312 17.742188 -17.515625 16.609375 -18.171875 C 15.472656 -18.828125 14.222656 -19.15625 12.859375 -19.15625 C 11.503906 -19.15625 10.265625 -18.832031 9.140625 -18.1875 C 8.015625 -17.550781 7.117188 -16.617188 6.453125 -15.390625 C 5.785156 -14.160156 5.453125 -12.71875 5.453125 -11.0625 C 5.453125 -9.375 5.785156 -7.910156 6.453125 -6.671875 C 7.117188 -5.429688 8.015625 -4.484375 9.140625 -3.828125 C 10.265625 -3.171875 11.503906 -2.84375 12.859375 -2.84375 C 14.222656 -2.84375 15.472656 -3.171875 16.609375 -3.828125 C 17.742188 -4.484375 18.644531 -5.429688 19.3125 -6.671875 C 19.976562 -7.910156 20.3125 -9.359375 20.3125 -11.015625 Z M 20.3125 -11.015625 "/></g></g></g><g fill="#ffffff" fill-opacity="1"><g transform="translate(277.19821, 201.03332)"><g><path d="M 23.125 -11.828125 C 23.125 -11.128906 23.082031 -10.394531 23 -9.625 L 5.453125 -9.625 C 5.585938 -7.457031 6.328125 -5.765625 7.671875 -4.546875 C 9.023438 -3.328125 10.660156 -2.71875 12.578125 -2.71875 C 14.160156 -2.71875 15.476562 -3.082031 16.53125 -3.8125 C 17.582031 -4.550781 18.320312 -5.535156 18.75 -6.765625 L 22.6875 -6.765625 C 22.09375 -4.660156 20.914062 -2.945312 19.15625 -1.625 C 17.394531 -0.300781 15.203125 0.359375 12.578125 0.359375 C 10.492188 0.359375 8.628906 -0.101562 6.984375 -1.03125 C 5.347656 -1.96875 4.0625 -3.296875 3.125 -5.015625 C 2.1875 -6.742188 1.71875 -8.742188 1.71875 -11.015625 C 1.71875 -13.285156 2.171875 -15.273438 3.078125 -16.984375 C 3.992188 -18.703125 5.269531 -20.019531 6.90625 -20.9375 C 8.550781 -21.863281 10.441406 -22.328125 12.578125 -22.328125 C 14.660156 -22.328125 16.503906 -21.867188 18.109375 -20.953125 C 19.710938 -20.046875 20.945312 -18.796875 21.8125 -17.203125 C 22.6875 -15.617188 23.125 -13.828125 23.125 -11.828125 Z M 19.359375 -12.578125 C 19.359375 -13.972656 19.050781 -15.171875 18.4375 -16.171875 C 17.820312 -17.171875 16.984375 -17.929688 15.921875 -18.453125 C 14.867188 -18.972656 13.703125 -19.234375 12.421875 -19.234375 C 10.578125 -19.234375 9.003906 -18.644531 7.703125 -17.46875 C 6.410156 -16.289062 5.671875 -14.660156 5.484375 -12.578125 Z M 19.359375 -12.578125 "/></g></g></g></svg>