<svg xmlns="http://www.w3.org/2000/svg" xmlns:xlink="http://www.w3.org/1999/xlink" width="500" zoomAndPan="magnify" viewBox="0 0 375 374.999991" height="500" preserveAspectRatio="xMidYMid meet" version="1.0"><defs><clipPath id="06533ac98d"><path d="M 1 0 L 61 0 L 61 61 L 1 61 Z M 1 0 " clip-rule="nonzero"/></clipPath><clipPath id="df308cdd8f"><path d="M 0 3.289062 L 59.160156 -0.0078125 L 62.457031 59.148438 L 3.296875 62.445312 Z M 0 3.289062 " clip-rule="nonzero"/></clipPath><clipPath id="8c8e21ba2c"><path d="M 59.007812 0 L -0.152344 3.296875 L 3.144531 62.457031 L 62.304688 59.160156 Z M 59.007812 0 " clip-rule="nonzero"/></clipPath><clipPath id="b767554202"><path d="M 9.007812 23.269531 L 48 23.269531 L 48 62 L 9.007812 62 Z M 9.007812 23.269531 " clip-rule="nonzero"/></clipPath><clipPath id="03fface879"><path d="M 9.007812 23.269531 L 48.007812 23.269531 L 48.007812 62 L 9.007812 62 Z M 9.007812 23.269531 " clip-rule="nonzero"/></clipPath></defs><g clip-path="url(#06533ac98d)"><g clip-path="url(#df308cdd8f)"><g clip-path="url(#8c8e21ba2c)"><path fill="#007bff" d="M 3.316406 31.457031 L 28.375 3.4375 C 29.394531 2.316406 30.832031 1.570312 32.453125 1.480469 L 53.105469 0.328125 C 56.367188 0.148438 59.152344 2.640625 59.335938 5.902344 L 60.484375 26.554688 C 60.578125 28.191406 59.996094 29.703125 58.976562 30.824219 L 33.90625 58.855469 C 32.902344 59.976562 31.464844 60.722656 29.839844 60.816406 C 28.21875 60.90625 26.691406 60.324219 25.570312 59.320312 L 3.765625 39.820312 C 2.644531 38.804688 1.898438 37.363281 1.808594 35.742188 C 1.71875 34.105469 2.300781 32.59375 3.316406 31.457031 Z M 49.503906 15.328125 C 51.949219 15.191406 53.816406 13.105469 53.679688 10.65625 C 53.542969 8.207031 51.457031 6.339844 49.007812 6.476562 C 46.558594 6.613281 44.695312 8.699219 44.832031 11.148438 C 44.964844 13.597656 47.054688 15.464844 49.503906 15.328125 Z M 49.503906 15.328125 " fill-opacity="1" fill-rule="nonzero"/></g></g></g><g clip-path="url(#b767554202)"><path fill="#ffffff" d="M 9.476562 42.316406 C 9.984375 43.101562 15.363281 45.402344 16.9375 44.925781 C 17.53125 44.328125 17.476562 41.605469 17.828125 40.910156 C 18.691406 43.617188 16.84375 58.382812 16.789062 60.691406 C 19.082031 62.296875 36.203125 62.125 40.226562 61.167969 C 40.84375 60.292969 38.738281 47.296875 38.949219 41.355469 C 39.355469 41.949219 39.589844 43.511719 39.695312 44.179688 C 41.355469 44.660156 47.390625 43.289062 47.835938 42.542969 C 47.851562 41.058594 43.710938 29.605469 42.667969 29.007812 C 41.5 28 34.414062 25.5625 33.40625 24.449219 C 33.175781 24.320312 32.992188 23.992188 32.863281 23.804688 C 31.699219 24.339844 25.96875 24.546875 24.902344 23.714844 C 24.644531 24.023438 24.671875 24.21875 24.285156 24.398438 C 23.542969 24.398438 16.976562 27.511719 14.792969 29.277344 C 13.214844 31.144531 9.203125 41.371094 9.476562 42.316406 Z M 9.476562 42.316406 " fill-opacity="1" fill-rule="evenodd"/></g><g clip-path="url(#03fface879)"><path fill="#ffffff" d="M 24.824219 23.269531 C 23.683594 24.875 20.621094 25.421875 18.730469 26.714844 C 16.863281 27.859375 14.414062 28.542969 13.53125 30.746094 C 11.71875 34.425781 10.039062 37.933594 9.066406 41.925781 C 9.699219 43.832031 12.480469 44.144531 14.179688 44.910156 C 14.75 45.0625 15.929688 45.394531 16.679688 45.21875 C 17.285156 44.679688 17.460938 43.632812 17.765625 41.820312 C 18.597656 45.347656 16.664062 55.257812 16.414062 60.800781 C 17.96875 62.09375 21.035156 61.667969 23.300781 61.925781 C 28.980469 62.113281 35.53125 61.824219 40.792969 61.625 C 40.554688 59.722656 40.277344 57.285156 40.320312 55.28125 C 39.949219 51.644531 39.324219 48.148438 39.140625 44.496094 C 39.019531 44.25 39.054688 42.855469 38.976562 42.160156 C 39.480469 43.214844 39.796875 44.460938 39.800781 44.691406 C 40.910156 44.496094 44.566406 44.027344 45.570312 43.820312 C 46.636719 43.757812 47.628906 43.625 48.191406 43.195312 C 48.171875 42.6875 47.871094 41.734375 47.664062 40.183594 C 46.402344 36.359375 45.164062 32.464844 43.175781 28.949219 C 41.320312 27.363281 38.613281 27.027344 36.449219 25.917969 C 34.546875 25.378906 33.894531 24.386719 32.589844 23.617188 C 30.183594 24.285156 27.640625 24.550781 24.824219 23.269531 Z M 25.015625 24.054688 C 27.476562 24.777344 30.171875 24.683594 32.664062 24.179688 C 34.398438 26.023438 37.167969 26.363281 39.378906 27.484375 C 41.640625 28.140625 43.640625 29.789062 44.167969 32.195312 C 45.5 35.503906 46.847656 39.210938 47.613281 42.699219 C 45.316406 43.714844 42.503906 43.882812 39.988281 43.777344 C 40.230469 42.507812 38.503906 39.398438 38.519531 42.171875 C 38.53125 48.398438 40.082031 54.914062 40.191406 61.128906 C 34.019531 61.582031 27.296875 61.78125 21.089844 61.386719 C 18.945312 61.273438 15.996094 60.96875 17.285156 58.023438 C 17.710938 52.535156 18.636719 46.960938 18.3125 41.445312 C 17.261719 38.773438 17.121094 43.5625 16.675781 44.503906 C 14.234375 44.449219 11.550781 43.613281 9.527344 42.304688 C 10.523438 38.265625 12.363281 34.113281 14.246094 30.410156 C 15.46875 28.296875 18.089844 27.671875 20.074219 26.457031 C 21.554688 25.480469 23.710938 25.164062 25.015625 24.054688 Z M 25.015625 24.054688 " fill-opacity="1" fill-rule="evenodd"/></g></svg>